#!OML:ASF H:\Terrain\Patient Classification 1\Walking\liu\liu.ASF
:FULLY-SPECIFIED
:DEGREES
178
root 8.114060 16.721201 -12.254100 7.877180 6.631190 -1.805560
lowerback -45.701401 4.618080 1.157970
upperback -3.540640 5.339770 34.605400
thorax 21.673000 2.548900 35.368301
lowerneck -207.196014 -82.265594 -150.556000
upperneck 146.153000 -99.447495 154.483002
head 96.256104 -39.652000 64.085495
rclavicle 0.000000 0.000000
rhumerus -381.867004 114.917000 -789.812012
rradius 413.605011
rwrist -211.665985
rhand -303.125977 -254.186005
rfingers 71.250198
rthumb -36.193802 -553.676025
lclavicle 0.000000 0.000000
lhumerus -450.070007 -128.514999 964.066040
lradius 326.130981
lwrist 174.981995
lhand -126.379005 -256.320984
lfingers 71.250198
lthumb 134.421997 39.142002
rfemur -204.596008 28.703598 263.829010
rtibia 276.484009
rfoot -174.210999 19.205101
rtoes -169.938995
lfemur -262.682983 81.968201 -181.417999
ltibia 625.747986
lfoot -99.239105 105.115005
ltoes -73.887497
179
root 8.109530 16.713100 -12.135900 7.854280 6.455840 -2.058760
lowerback -45.685802 4.029190 3.064040
upperback -4.375780 4.477570 34.842602
thorax 20.869301 2.146620 34.473801
lowerneck -201.781006 -78.423798 -147.697006
upperneck 144.304001 -95.458000 154.455002
head 93.830605 -37.891499 64.296402
rclavicle -0.000000 -0.000000
rhumerus -376.116974 114.593002 -790.559998
rradius 414.905029
rwrist -209.899002
rhand -303.472992 -253.294998
rfingers 71.250198
rthumb -36.528297 -552.780029
lclavicle -0.000000 -0.000000
lhumerus -453.363983 -117.531998 958.106995
lradius 327.747986
lwrist 170.807983
lhand -126.597992 -253.647995
lfingers 71.250198
lthumb 134.212006 41.828800
rfemur -200.660995 31.446400 267.378998
rtibia 277.402985
rfoot -176.764999 19.120501
rtoes -161.208984
lfemur -275.572998 81.681992 -181.307999
ltibia 623.812988
lfoot -109.485001 106.604996
ltoes -70.073700
180
root 8.104840 16.699100 -12.015400 7.788990 6.365120 -2.196510
lowerback -45.326099 0.852978 2.405070
upperback -5.631750 0.327108 34.317001
thorax 19.613001 0.084882 34.029301
lowerneck -197.567993 -71.215202 -135.227005
upperneck 145.414001 -88.479607 148.666000
head 91.351402 -34.652401 61.286201
rclavicle 0.000000 0.000000
rhumerus -372.364014 118.788002 -795.817017
rradius 417.582031
rwrist -207.738983
rhand -304.069000 -248.763000
rfingers 71.250198
rthumb -37.103901 -548.237000
lclavicle 0.000000 0.000000
lhumerus -457.652008 -104.050995 948.333008
lradius 329.532013
lwrist 173.187012
lhand -122.665009 -248.216003
lfingers 71.250198
lthumb 138.001007 47.006500
rfemur -196.280991 34.708401 270.024994
rtibia 278.174011
rfoot -181.559998 15.820499
rtoes -156.733994
lfemur -287.553009 80.113602 -182.136993
ltibia 620.484985
lfoot -119.357994 106.501999
ltoes -34.365700
181
root 8.106370 16.691700 -11.888300 7.702270 6.156650 -2.157910
lowerback -47.164799 8.126510 4.809980
upperback -2.719570 9.775840 34.412899
thorax 23.134401 4.785190 33.424999
lowerneck -197.579010 -79.737099 -151.291992
upperneck 142.949997 -96.940697 155.712006
head 93.135597 -38.857300 65.128601
rclavicle -0.000000 -0.000000
rhumerus -366.598022 101.208000 -781.343994
rradius 422.131989
rwrist -208.455994
rhand -303.406006 -242.694000
rfingers 71.250198
rthumb -36.463898 -542.179016
lclavicle -0.000000 -0.000000
lhumerus -451.517975 -114.728004 956.492004
lradius 328.186005
lwrist 174.559006
lhand -132.895996 -245.617996
lfingers 71.250198
lthumb 128.141006 50.248798
rfemur -190.832993 36.888000 270.394989
rtibia 279.291016
rfoot -185.254990 15.019300
rtoes -147.494995
lfemur -297.187012 78.382500 -185.300003
ltibia 615.101013
lfoot -126.815994 109.469002
ltoes -40.077599
182
root 8.105320 16.689100 -11.766100 7.782760 5.919900 -2.221690
lowerback -42.084999 9.957880 6.744540
upperback -21.422802 12.911500 33.842300
thorax 0.946610 6.614650 31.546000
lowerneck -135.358002 -70.939499 -161.851013
upperneck 131.288010 -91.151306 163.022003
head 78.065704 -38.897900 71.071999
rclavicle -0.000000 0.000000
rhumerus -407.233002 104.147995 -784.977051
rradius 436.679993
rwrist -212.167999
rhand -304.968994 -249.071991
rfingers 71.250198
rthumb -37.973198 -548.531006
lclavicle -0.000000 0.000000
lhumerus -492.962982 -110.380005 963.134033
lradius 332.904022
lwrist 168.421997
lhand -148.085999 -252.003998
lfingers 71.250198
lthumb 113.493996 44.724499
rfemur -187.731995 39.876102 271.746002
rtibia 281.143005
rfoot -189.255997 13.952000
rtoes -141.464005
lfemur -308.781006 78.170303 -187.391998
ltibia 608.325012
lfoot -126.722000 114.803001
ltoes -79.335098
